<?xml version="1.0" encoding="UTF-8"?>
<svg version="1.1" xmlns="http://www.w3.org/2000/svg" width="32" height="32">
<path d="M0 0 C2 3 2 3 1.64453125 4.90234375 C0.09270613 8.69812257 -1.49601136 11.73392786 -4 15 C-4.69100553 16.99172182 -5.35902703 18.99161804 -6 21 C-6.66 21.99 -7.32 22.98 -8 24 C-9.32 23.67 -10.64 23.34 -12 23 C-12 21.35 -12 19.7 -12 18 C-13.98 18 -15.96 18 -18 18 C-18.66 19.32 -19.32 20.64 -20 22 C-20.99 22 -21.98 22 -23 22 C-23 20.02 -23 18.04 -23 16 C-24.32 15.67 -25.64 15.34 -27 15 C-27 14.01 -27 13.02 -27 12 C-25.02 11.67 -23.04 11.34 -21 11 C-22.98 10.34 -24.96 9.68 -27 9 C-26.67 7.68 -26.34 6.36 -26 5 C-25.27554687 4.89042969 -24.55109375 4.78085938 -23.8046875 4.66796875 C-17.63473445 3.68296934 -17.63473445 3.68296934 -11.875 1.375 C-8.03855242 -0.45982276 -4.19339823 -0.85545324 0 0 Z " fill="#F06630" transform="translate(29,5)"/>
</svg>
