
<!-- Generator: visioncortex VTracer 0.6.4 -->
<svg version="1.1" xmlns="http://www.w3.org/2000/svg" viewBox="0 0 232 220" preserveAspectRatio="xMidYMid meet">
<path d="M0 0 C76.56 0 153.12 0 232 0 C232 72.6 232 145.2 232 220 C155.44 220 78.88 220 0 220 C0 147.4 0 74.8 0 0 Z " fill="#FAF2E0" transform="translate(0,0)"/>
<path d="M0 0 C1.763 -0.029 1.763 -0.029 3.562 -0.058 C8.967 -0.116 14.371 -0.166 19.776 -0.196 C22.625 -0.214 25.474 -0.249 28.322 -0.299 C32.427 -0.371 36.53 -0.393 40.635 -0.412 C42.537 -0.454 42.537 -0.454 44.477 -0.497 C52.426 -0.478 56.784 0.655 62.506 6.209 C64.123 7.365 65.747 8.513 67.381 9.646 C68.645 10.526 68.645 10.526 69.935 11.424 C71.208 12.307 71.208 12.307 72.506 13.209 C74.173 14.375 75.839 15.541 77.506 16.709 C79.992 18.45 82.479 20.19 84.97 21.924 C89.312 24.948 93.616 28.014 97.881 31.146 C101.552 33.829 105.267 36.401 109.068 38.896 C116.696 43.932 124.06 49.329 131.447 54.709 C133.236 56.013 135.028 57.313 136.822 58.611 C141.418 61.941 145.983 65.297 150.459 68.787 C152.665 70.368 152.665 70.368 155.83 72.072 C159.497 74.136 162.767 76.546 166.068 79.146 C166.875 79.772 166.875 79.772 167.699 80.41 C168.773 81.247 169.843 82.089 170.908 82.938 C171.999 83.806 173.101 84.66 174.213 85.503 C177.483 88.055 178.433 88.886 179.381 93.084 C179.174 95.78 178.775 96.911 176.947 98.93 C176.286 99.477 175.624 100.024 174.943 100.588 C174.217 101.192 173.491 101.797 172.743 102.42 C169.408 105.086 166.043 107.704 162.631 110.271 C161.129 111.41 159.627 112.549 158.127 113.689 C157.362 114.27 156.598 114.85 155.81 115.448 C152.081 118.297 148.389 121.193 144.693 124.084 C137.407 129.774 130.034 135.341 122.629 140.875 C109.889 150.399 97.362 160.19 84.896 170.068 C61.653 188.457 61.653 188.457 54.322 188.468 C53.047 188.474 51.772 188.48 50.459 188.487 C49.067 188.483 47.675 188.479 46.283 188.474 C44.857 188.476 43.431 188.478 42.006 188.48 C39.019 188.483 36.032 188.479 33.045 188.469 C29.213 188.458 25.381 188.465 21.548 188.477 C18.605 188.484 15.662 188.482 12.718 188.476 C11.305 188.475 9.891 188.477 8.478 188.481 C6.505 188.486 4.533 188.477 2.56 188.468 C1.437 188.466 0.313 188.464 -0.844 188.463 C-3.494 188.209 -3.494 188.209 -5.494 186.209 C-5.998 184.041 -5.998 184.041 -5.494 181.209 C-3.728 178.541 -1.598 176.244 0.568 173.896 C1.169 173.225 1.771 172.553 2.39 171.861 C3.572 170.542 4.759 169.228 5.951 167.918 C7.682 166.015 9.38 164.087 11.068 162.146 C11.591 161.549 12.115 160.953 12.654 160.338 C16.233 156.223 19.773 152.075 23.318 147.931 C25.418 145.477 27.522 143.027 29.631 140.58 C34.892 134.47 40.081 128.318 45.158 122.052 C47.4 119.337 49.691 116.673 52.001 114.015 C61.775 103.886 61.775 103.886 68.084 91.849 C67.162 87.639 64.385 85.124 61.506 82.021 C60.296 80.676 59.087 79.33 57.881 77.982 C57.001 77.007 57.001 77.007 56.103 76.012 C54.14 73.796 52.313 71.491 50.506 69.146 C46.721 64.329 42.561 59.915 38.362 55.462 C35.006 51.883 31.822 48.231 28.756 44.396 C25.288 40.065 21.571 36.171 17.603 32.299 C15.151 29.855 12.913 27.284 10.674 24.646 C8.826 22.569 6.934 20.574 4.994 18.584 C4.361 17.927 3.727 17.271 3.075 16.594 C1.798 15.274 0.512 13.964 -0.784 12.663 C-4.289 9.017 -6.446 6.531 -6.494 1.209 C-4.756 -0.53 -2.368 0.036 0 0 Z " fill="#FB872C" transform="translate(40.494384765625,17.791259765625)"/>
<path d="M0 0 C3.404 0.505 5.158 1.85 7.449 4.363 C8.985 7.435 8.676 9.966 8.449 13.363 C7.19 16.809 6.032 18.832 3.324 21.301 C-0.838 22.839 -4.298 22.5 -8.551 21.363 C-11.391 19.659 -12.259 18.455 -13.109 15.273 C-13.723 11.469 -13.856 9.065 -12.301 5.488 C-11.723 4.787 -11.146 4.086 -10.551 3.363 C-9.905 2.569 -9.905 2.569 -9.246 1.758 C-6.403 -0.581 -3.543 -0.098 0 0 Z " fill="#FBECD9" transform="translate(173.55078125,100.63671875)"/>
</svg>