<?xml version="1.0" encoding="UTF-8"?>
<svg version="1.1" xmlns="http://www.w3.org/2000/svg" width="872" height="860">
<path d="M0 0 C287.76 0 575.52 0 872 0 C872 283.8 872 567.6 872 860 C584.24 860 296.48 860 0 860 C0 576.2 0 292.4 0 0 Z " fill="#FBF0E9" transform="translate(0,0)"/>
<path d="M0 0 C4.43518549 2.5403853 8.67264791 2.41499696 13.67944336 2.36889648 C14.61770462 2.37831772 15.55596588 2.38773895 16.5226593 2.39744568 C19.50873825 2.42597751 22.49402086 2.42918022 25.48022461 2.42749023 C53.3619843 2.4616061 53.3619843 2.4616061 59.79272461 5.86499023 C66.95774419 15.09495327 65.27372071 31.68626603 65.29272461 42.92749023 C65.29473877 43.76625702 65.29675293 44.6050238 65.29882812 45.46920776 C65.23480723 85.49403697 54.22847514 123.83438183 39.79272461 160.86499023 C39.39408203 161.90187988 38.99543945 162.93876953 38.5847168 164.00708008 C33.51936839 177.13329677 27.63764324 189.57609296 20.79272461 201.86499023 C20.2689624 202.81510986 20.2689624 202.81510986 19.73461914 203.78442383 C11.76256525 218.21504749 3.01368688 231.99112097 -6.93237305 245.13891602 C-8.30366325 246.99548855 -9.60113581 248.89523494 -10.90649414 250.79858398 C-11.66575195 251.81049805 -12.42500977 252.82241211 -13.20727539 253.86499023 C-13.86727539 253.86499023 -14.52727539 253.86499023 -15.20727539 253.86499023 C-15.4818457 254.45666992 -15.75641602 255.04834961 -16.03930664 255.65795898 C-23.05149894 268.9084227 -38.60100949 280.81869908 -50.20727539 289.86499023 C-51.45238563 290.86297162 -52.69576213 291.86311847 -53.93774414 292.86499023 C-71.68170282 307.17314522 -71.68170282 307.17314522 -78.10180664 310.66967773 C-80.98809663 312.30827651 -83.77360192 314.09692866 -86.58227539 315.86499023 C-90.82308138 318.50034398 -95.02530763 320.8679268 -99.64868164 322.76342773 C-101.62591226 323.61469344 -103.56517548 324.55446037 -105.48461914 325.52905273 C-159.60943611 352.94228321 -223.88811418 356.51581301 -283.20727539 361.86499023 C-284.849877 366.65109155 -286.44461043 371.38517244 -287.53149414 376.33374023 C-287.86141357 377.79070312 -287.86141357 377.79070312 -288.19799805 379.27709961 C-288.42793457 380.29610352 -288.65787109 381.31510742 -288.89477539 382.36499023 C-291.01973118 391.48795157 -293.47584424 400.44357064 -296.33227539 409.36499023 C-296.65671631 410.38399414 -296.98115723 411.40299805 -297.31542969 412.45288086 C-299.03013206 417.6983647 -300.93548108 422.75667662 -303.24291992 427.76977539 C-304.17536077 429.79565068 -305.05438809 431.83640071 -305.91821289 433.89233398 C-315.45910331 456.40860941 -315.45910331 456.40860941 -322.20727539 459.86499023 C-326.46987669 459.94110811 -328.47550171 459.48722372 -331.73852539 456.71264648 C-346.03114699 440.22637885 -349.52634017 405.23963903 -352.19555664 384.68920898 C-352.34822998 383.55112793 -352.50090332 382.41304687 -352.65820312 381.24047852 C-352.93374985 379.08781932 -353.17854114 376.93092004 -353.38720703 374.77075195 C-353.98482256 369.5618616 -353.98482256 369.5618616 -356.71582031 365.26049805 C-358.8151152 363.8794752 -360.90425059 362.8707093 -363.20727539 361.86499023 C-364.08512695 361.44000244 -364.96297852 361.01501465 -365.86743164 360.57714844 C-368.81509348 359.16683599 -371.78637355 357.8229143 -374.76977539 356.48999023 C-376.92629286 355.51662427 -379.08254389 354.54266778 -381.23852539 353.56811523 C-382.27235352 353.10211914 -383.30618164 352.63612305 -384.37133789 352.15600586 C-386.69422148 351.0985499 -389.00245575 350.02078261 -391.30102539 348.91186523 C-399.74000855 344.8444274 -408.33301087 341.38273333 -417.09033203 338.05981445 C-433.97357343 331.6116069 -433.97357343 331.6116069 -436.20727539 326.86499023 C-436.70727539 323.92749023 -436.70727539 323.92749023 -436.20727539 320.86499023 C-432.54142375 316.01660581 -427.50776476 313.57884079 -422.20727539 310.86499023 C-421.43254883 310.45249023 -420.65782227 310.03999023 -419.85961914 309.61499023 C-403.04321289 300.86499023 -403.04321289 300.86499023 -397.20727539 300.86499023 C-397.3890332 300.27717773 -397.57079102 299.68936523 -397.75805664 299.08374023 C-400.88908738 287.90836898 -401.95366323 276.37278083 -403.20727539 264.86499023 C-403.30806396 264.02170166 -403.40885254 263.17841309 -403.51269531 262.30957031 C-404.47252508 253.44745275 -404.31768271 244.578308 -404.26977539 235.67749023 C-404.26474833 234.0414239 -404.26018756 232.40535607 -404.25610352 230.76928711 C-404.24519816 226.80115038 -404.22800069 222.83308733 -404.20727539 218.86499023 C-405.46540039 218.81600586 -406.72352539 218.76702148 -408.01977539 218.71655273 C-451.82970102 216.87088269 -451.82970102 216.87088269 -462.70727539 205.17749023 C-464.7478764 200.67116301 -464.91395759 197.52462953 -463.20727539 192.86499023 C-456.65300172 182.94955058 -443.62841662 177.81739726 -433.14477539 172.98999023 C-432.42394775 172.65572021 -431.70312012 172.3214502 -430.96044922 171.97705078 C-426.01247899 169.79820866 -421.08744375 168.24571638 -415.85571289 166.87670898 C-402.92546008 163.93975356 -402.92546008 163.93975356 -392.40307617 156.75219727 C-389.79345612 151.73401772 -388.91909502 146.33116622 -387.8996582 140.8137207 C-386.6530868 135.50480343 -384.29237407 130.70848446 -381.95727539 125.80249023 C-381.48660645 124.79750488 -381.0159375 123.79251953 -380.53100586 122.75708008 C-373.02859429 106.94194538 -364.57232806 91.97918508 -354.20727539 77.86499023 C-353.77527832 77.2760498 -353.34328125 76.68710937 -352.89819336 76.08032227 C-348.00917355 69.46838149 -342.85330299 63.17058726 -337.27758789 57.11889648 C-335.43412382 55.11195541 -333.65948446 53.06586781 -331.89477539 50.98999023 C-323.77789499 41.71087754 -314.93152568 33.43240428 -305.20727539 25.86499023 C-303.9403077 24.85722879 -302.67338349 23.84941266 -301.40649414 22.84155273 C-219.43563017 -41.75214858 -108.05589146 -52.69369068 0 0 Z " fill="#DF6D40" transform="translate(610.207275390625,193.135009765625)"/>
<path d="M0 0 C0.33 0 0.66 0 1 0 C0.93425781 1.97419922 0.93425781 1.97419922 0.8671875 3.98828125 C0.55069803 15.85296822 0.55069803 15.85296822 6.3125 25.75 C7.71148338 27.03388971 9.11111803 28.31724524 10.52783203 29.58154297 C13.26855771 32.22227534 15.48724513 35.26248715 17.75 38.3125 C18.2445166 38.97741455 18.7390332 39.6423291 19.24853516 40.32739258 C62.39727476 99.36040763 81.27117102 172.57409921 70.52734375 245.19482422 C61.74151938 299.67507036 36.56539798 351.7799715 -2.23486328 391.20410156 C-4.07646689 393.0777995 -5.89565163 394.97174182 -7.71484375 396.8671875 C-15.09469811 404.48270108 -22.72566639 411.3790124 -31.24511719 417.69384766 C-33.01416406 419.01054226 -34.76156142 420.35248435 -36.5078125 421.69921875 C-92.53662258 464.4427683 -166.27837124 482.02443392 -235.81640625 473.1015625 C-288.0113504 465.56173215 -334.31583951 443.0333781 -375 410 C-374.27318328 408.08244098 -373.54337465 406.16601602 -372.8125 404.25 C-372.40644531 403.18265625 -372.00039063 402.1153125 -371.58203125 401.015625 C-370.71628518 398.77310424 -369.81085505 396.55826866 -368.86450195 394.34814453 C-365.6379008 386.81213156 -362.976093 379.20727776 -360.5625 371.375 C-360.17634521 370.13258545 -359.79019043 368.8901709 -359.39233398 367.61010742 C-356.39553388 357.83013102 -353.96678985 347.95911821 -351.85180664 337.94873047 C-351.63387451 336.93053223 -351.41594238 335.91233398 -351.19140625 334.86328125 C-351.00779541 333.96907471 -350.82418457 333.07486816 -350.63500977 332.15356445 C-350 330 -350 330 -348 328 C-345.75082397 327.57208252 -345.75082397 327.57208252 -342.89990234 327.31738281 C-341.82650604 327.21654388 -340.75310974 327.11570496 -339.64718628 327.0118103 C-338.47197418 326.90994415 -337.29676208 326.808078 -336.0859375 326.703125 C-333.56312286 326.46758686 -331.04033757 326.23173405 -328.51757812 325.99560547 C-327.17458559 325.8727525 -325.83156757 325.7501777 -324.48852539 325.62786865 C-317.61173881 324.99920242 -310.73889364 324.33020546 -303.8671875 323.6484375 C-303.18281868 323.58055653 -302.49844986 323.51267555 -301.79334259 323.44273758 C-272.44322975 320.51223568 -242.21887975 316.85508573 -214 308 C-212.59645264 307.5661499 -212.59645264 307.5661499 -211.16455078 307.12353516 C-207.89857605 306.11190541 -204.63630272 305.08908682 -201.375 304.0625 C-200.33770752 303.73862305 -199.30041504 303.41474609 -198.23168945 303.08105469 C-188.11833773 299.85541681 -178.3916501 295.88978486 -168.9375 291.0625 C-168.26195068 290.72041504 -167.58640137 290.37833008 -166.89038086 290.02587891 C-158.69374983 285.85499667 -150.65025849 281.62555862 -143.0703125 276.39453125 C-141.58843856 275.39636333 -140.07328794 274.44691471 -138.5390625 273.53125 C-120.25487826 262.50448043 -96.88655469 244.82983204 -85 227 C-84.34 227 -83.68 227 -83 227 C-82.690625 226.38125 -82.38125 225.7625 -82.0625 225.125 C-81.375 223.75 -80.6875 222.375 -80 221 C-79.34 221 -78.68 221 -78 221 C-77.59031982 220.12976196 -77.59031982 220.12976196 -77.17236328 219.24194336 C-76.01507582 217.02882992 -74.73026829 215.13178659 -73.2421875 213.12890625 C-72.43334106 212.03002075 -72.43334106 212.03002075 -71.6081543 210.90893555 C-71.03621338 210.13461182 -70.46427246 209.36028809 -69.875 208.5625 C-65.22733143 202.19947606 -60.84565491 195.81140179 -56.8125 189.0390625 C-55.61686182 187.03430711 -54.3880464 185.04892212 -53.125 183.0859375 C-47.06054127 173.62244747 -42.14446246 163.64194541 -37.23828125 153.54150391 C-36.20447344 151.41967045 -35.15412912 149.307822 -34.09375 147.19921875 C-28.06784866 134.87738748 -23.61418241 121.89916599 -19 109 C-18.72913574 108.25218262 -18.45827148 107.50436523 -18.17919922 106.73388672 C-16.66140684 102.52551172 -15.29076769 98.28237005 -14 94 C-13.74154297 93.15937012 -13.48308594 92.31874023 -13.21679688 91.45263672 C-4.167697 61.56896349 0.0471838 31.17838064 0 0 Z " fill="#F4CFB9" transform="translate(675,226)"/>
<path d="M0 0 C0 0.33 0 0.66 0 1 C-1.75582397 1.14248169 -1.75582397 1.14248169 -3.54711914 1.2878418 C-47.21743194 4.87037206 -88.30232187 10.81419117 -129.375 26.6875 C-130.33196777 27.05584961 -131.28893555 27.42419922 -132.27490234 27.80371094 C-137.47755672 29.85371758 -142.19704552 32.14434267 -147 35 C-149.47981338 36.29118991 -151.99022782 37.51827141 -154.5 38.75 C-174.66449096 48.7710268 -192.74380451 60.28629338 -210 74.8125 C-210.52779053 75.25634033 -211.05558105 75.70018066 -211.59936523 76.1574707 C-215.84059109 79.77021598 -219.72092314 83.65852915 -223.5625 87.6875 C-226 90 -226 90 -228.1875 91.0625 C-230.14322954 91.8439064 -230.14322954 91.8439064 -230.8515625 93.76953125 C-232.26243567 96.50969648 -234.07011242 98.38734772 -236.1875 100.625 C-240.1210992 104.88851397 -243.42862861 109.3064033 -246.58984375 114.1640625 C-247.05519531 114.76992188 -247.52054688 115.37578125 -248 116 C-248.66 116 -249.32 116 -250 116 C-250.23847656 116.69222656 -250.47695313 117.38445312 -250.72265625 118.09765625 C-252.23107902 121.52505112 -254.25342933 124.42073033 -256.4375 127.4375 C-259.34845588 131.46915016 -261.88208629 135.48496209 -264 140 C-264.66 140 -265.32 140 -266 140 C-266.23074219 140.82113281 -266.46148437 141.64226562 -266.69921875 142.48828125 C-268.27358605 146.73860017 -270.44892048 150.33711785 -272.8125 154.1875 C-276.68613789 160.63227108 -280.06124959 167.07141327 -283 174 C-283.80954513 175.75136887 -284.62213841 177.50133144 -285.4375 179.25 C-288.21507809 185.36759411 -290.69232382 191.59390602 -293.14930725 197.84580994 C-293.96855102 199.92036246 -294.79819419 201.99046951 -295.62988281 204.06005859 C-299.58559808 213.97638427 -303.0219598 223.96670134 -306.14334106 234.17410278 C-309.8840913 246.3852534 -313.74312226 258.54213835 -318.0625 270.5625 C-318.42005371 271.56547119 -318.77760742 272.56844238 -319.14599609 273.60180664 C-323.37737156 285.18868578 -323.37737156 285.18868578 -327 287 C-329.22090876 287.24726229 -331.44769523 287.44238063 -333.67578125 287.61328125 C-335.06523935 287.72516396 -336.45464168 287.83774086 -337.84399414 287.95092773 C-338.57361359 288.00948944 -339.30323303 288.06805115 -340.05496216 288.12838745 C-359.51757444 289.71565261 -378.11644713 293.01586523 -397 298 C-398.33270179 298.33584941 -399.66569375 298.67058275 -401 299 C-404.61569939 287.30667432 -405.67979035 275.11913596 -407 263 C-407.10078857 262.15671143 -407.20157715 261.31342285 -407.30541992 260.44458008 C-408.26524969 251.58246252 -408.11040732 242.71331776 -408.0625 233.8125 C-408.05747294 232.17643367 -408.05291217 230.54036583 -408.04882812 228.90429688 C-408.03792277 224.93616014 -408.0207253 220.96809709 -408 217 C-409.258125 216.95101562 -410.51625 216.90203125 -411.8125 216.8515625 C-455.62242563 215.00589245 -455.62242563 215.00589245 -466.5 203.3125 C-468.54060101 198.80617278 -468.70668219 195.65963929 -467 191 C-460.44572633 181.08456034 -447.42114123 175.95240703 -436.9375 171.125 C-436.21667236 170.79072998 -435.49584473 170.45645996 -434.75317383 170.11206055 C-429.8052036 167.93321842 -424.88016836 166.38072615 -419.6484375 165.01171875 C-406.71818469 162.07476332 -406.71818469 162.07476332 -396.19580078 154.88720703 C-393.58618073 149.86902748 -392.71181963 144.46617598 -391.69238281 138.94873047 C-390.44581141 133.63981319 -388.08509868 128.84349423 -385.75 123.9375 C-385.27933105 122.93251465 -384.80866211 121.9275293 -384.32373047 120.89208984 C-376.8213189 105.07695514 -368.36505267 90.11419484 -358 76 C-357.56800293 75.41105957 -357.13600586 74.82211914 -356.69091797 74.21533203 C-351.80189816 67.60339125 -346.6460276 61.30559702 -341.0703125 55.25390625 C-339.22684843 53.24696517 -337.45220907 51.20087758 -335.6875 49.125 C-327.5706196 39.84588731 -318.72425029 31.56741404 -309 24 C-307.73303231 22.99223855 -306.4661081 21.98442243 -305.19921875 20.9765625 C-223.22835478 -43.61713882 -111.84861607 -54.55868091 0 0 Z " fill="#F2C4A8" transform="translate(614,195)"/>
<path d="M0 0 C3 2.0625 3 2.0625 5 5 C4.57343551 11.33155533 2.7411697 17.49144033 1.1875 23.625 C0.78047852 25.24220947 0.78047852 25.24220947 0.36523438 26.89208984 C-1.23308354 33.17621271 -2.95622725 39.38585399 -4.9453125 45.55859375 C-6.37877983 50.23594456 -7.61476783 54.96102618 -8.875 59.6875 C-10.95845179 67.46175155 -13.27222993 75.10401527 -15.88574219 82.71557617 C-17.79478224 88.29201582 -19.43417196 93.89459138 -20.9453125 99.59375 C-22.06433176 103.20776777 -23.42101291 106.65244894 -24.84912109 110.15332031 C-26.10849754 113.26836685 -27.31467115 116.40104233 -28.515625 119.5390625 C-47.85562238 169.80333178 -47.85562238 169.80333178 -63.375 179 C-67.98347463 180.27130335 -71.43445347 180.51135333 -76 179 C-85.03414154 173.72458888 -89.27625116 164.17971707 -92.0625 154.5 C-94.93827973 142.79232771 -96.91987598 130.86947174 -99 119 C-99.18256348 118.0109668 -99.36512695 117.02193359 -99.55322266 116.00292969 C-100.94199976 108.23352919 -101.61738836 100.49714116 -102.125 92.625 C-102.21136719 91.41328125 -102.29773438 90.2015625 -102.38671875 88.953125 C-102.63186035 85.30323895 -102.81756918 81.65349413 -103 78 C-103.09893555 76.73897461 -103.19787109 75.47794922 -103.29980469 74.17871094 C-103.75594825 65.36379455 -103.75594825 65.36379455 -101.97192383 62.14526367 C-100.11101769 60.44487822 -98.1768843 59.27778284 -96 58 C-94.36001065 56.89133567 -92.72030388 55.78224173 -91.08395386 54.66821289 C-88.41836875 52.87043928 -85.72149639 51.12234438 -83.02429199 49.37249756 C-80.76488017 47.90660454 -78.50939925 46.43483535 -76.25488281 44.96142578 C-73.81833377 43.36918264 -71.38152505 41.77735021 -68.943573 40.18725586 C-59.34048719 33.92358491 -49.76380876 27.61990313 -40.19003296 21.31155396 C-37.29017159 19.4014604 -34.38893454 17.49347043 -31.48754883 15.58569336 C-29.6843455 14.39836897 -27.8812014 13.21095463 -26.078125 12.0234375 C-25.26282822 11.48786728 -24.44753143 10.95229706 -23.60752869 10.40049744 C-20.05880991 8.06066829 -16.55251996 5.69398433 -13.12011719 3.18603516 C-8.65050705 0.05451018 -5.41306989 -0.55997275 0 0 Z " fill="#E06D40" transform="translate(599,489)"/>
<path d="M0 0 C2.4375 1.625 2.4375 1.625 4 4 C4.38692852 8.44298035 3.77240163 11.1584019 1.61328125 15.02734375 C1.09403076 15.97182373 0.57478027 16.91630371 0.03979492 17.8894043 C-0.5302124 18.89527588 -1.10021973 19.90114746 -1.6875 20.9375 C-2.27619873 21.9994458 -2.86489746 23.0613916 -3.47143555 24.15551758 C-5.30023577 27.44511734 -7.14732555 30.72379607 -9 34 C-9.53915039 34.95712891 -10.07830078 35.91425781 -10.63378906 36.90039062 C-12.71320711 40.59106507 -14.79517867 44.28013038 -16.89331055 47.96020508 C-20.05529081 53.51372663 -23.15334714 59.09712791 -26.19921875 64.71484375 C-26.92071929 66.04082469 -27.6423174 67.36675254 -28.36401367 68.69262695 C-29.4241904 70.64075844 -30.48135815 72.59020214 -31.52871704 74.54525757 C-32.50101288 76.3599871 -33.48389595 78.16862544 -34.46875 79.9765625 C-35.03013672 81.01893066 -35.59152344 82.06129883 -36.16992188 83.13525391 C-38.20521409 86.3212356 -40.09913299 88.56339651 -43 91 C-46.16162109 91.62145996 -46.16162109 91.62145996 -49.7734375 91.61523438 C-50.43715614 91.62070974 -51.10087479 91.62618511 -51.78470612 91.6318264 C-53.982187 91.6434525 -56.17765823 91.61907632 -58.375 91.59375 C-59.92769405 91.59313599 -61.48038986 91.59440375 -63.03308105 91.59744263 C-67.17021674 91.59804394 -71.30642767 91.56518305 -75.44332886 91.52344513 C-77.99584072 91.50003814 -80.54823676 91.48584336 -83.10083008 91.47479248 C-163.69470913 91.11370361 -163.69470913 91.11370361 -181 79 C-184.1111494 75.6555144 -185.34324435 73.13958064 -185.25 68.625 C-184.20409861 62.6783035 -180.6806558 59.52978991 -176 56 C-171.48433331 53.00712623 -166.82748725 50.43981521 -162 48 C-161.39591309 47.69126953 -160.79182617 47.38253906 -160.16943359 47.06445312 C-138.35482521 36.14271747 -113.86829932 28.97955409 -90.37744141 22.64892578 C-87.04524823 21.73939924 -83.72947348 20.77558514 -80.41186523 19.81445312 C-67.32358451 16.02823122 -54.16400167 12.51182224 -41 9 C-38.96855961 8.45716106 -36.93718434 7.91407888 -34.9058075 7.3710022 C-31.47904471 6.4550199 -28.05205949 5.53987151 -24.625 4.625 C-23.96871613 4.44978821 -23.31243225 4.27457642 -22.63626099 4.09405518 C-20.77063052 3.59617391 -18.90484954 3.09885669 -17.0390625 2.6015625 C-15.96865723 2.31619629 -14.89825195 2.03083008 -13.79541016 1.73681641 C-12.8729248 1.49366699 -11.95043945 1.25051758 -11 1 C-10.28763184 0.80841309 -9.57526367 0.61682617 -8.84130859 0.41943359 C-5.78055356 -0.27777897 -3.12139879 -0.27869632 0 0 Z " fill="#E06D40" transform="translate(331,322)"/>
<path d="M0 0 C3.5542295 0.07844649 4.88532227 0.89659628 7.54296875 3.29296875 C8.41566406 4.24816406 9.28835938 5.20335937 10.1875 6.1875 C18.51142025 14.91894405 28.31377075 20.79929246 40.625 21.4375 C50.08731535 21.13710904 59.62702031 18.22247686 68 14 C71.375 13.8125 71.375 13.8125 74 14 C74.495 17.465 74.495 17.465 75 21 C59.54865799 29.23319684 44.71236334 34.27194506 27.1875 29.4375 C17.77768269 26.08843941 10.46356842 20.78289488 3.3125 13.9375 C2.78261475 13.44314453 2.25272949 12.94878906 1.70678711 12.43945312 C-0.83390431 9.88820189 -1.94967108 8.3574644 -2.45703125 4.75390625 C-2 2 -2 2 0 0 Z " fill="#FEFBFA" transform="translate(580,300)"/>
<path d="M0 0 C19.27433628 8.27433628 19.27433628 8.27433628 23 12 C23.57836914 14.39501953 23.57836914 14.39501953 24.03515625 17.3828125 C24.20466797 18.46820312 24.37417969 19.55359375 24.54882812 20.671875 C24.71833984 21.81140625 24.88785156 22.9509375 25.0625 24.125 C25.23587891 25.24132812 25.40925781 26.35765625 25.58789062 27.5078125 C26.48371002 33.32892246 27.30646154 39.15139732 28 45 C24.26910467 41.4730866 21.25771024 37.7997224 18.4375 33.5 C17.81210327 32.55386841 17.81210327 32.55386841 17.17407227 31.58862305 C13.39664468 25.78002225 9.89238821 19.81721493 6.4375 13.8125 C5.912771 12.90371094 5.38804199 11.99492188 4.84741211 11.05859375 C4.36022705 10.20007813 3.87304199 9.3415625 3.37109375 8.45703125 C2.93724365 7.69366455 2.50339355 6.93029785 2.05639648 6.14379883 C1.04495154 4.09122243 0.45672772 2.234828 0 0 Z " fill="#F3C8AF" transform="translate(233,548)"/>
<path d="M0 0 C4.32036821 2.28725376 7.05893629 4.47085134 9 9 C9.5931368 12.98248997 9.17424115 14.67640929 7.25 18.25 C3.89889879 22.34579037 2.38667774 22.84343961 -2.875 23.4375 C-7.66712268 23.33897037 -9.72173592 21.35822174 -13 18 C-14.73125121 14.53749757 -14.47815224 10.78591771 -14 7 C-10.56417713 1.2327259 -6.66321886 -0.79958626 0 0 Z " fill="#FEFBF9" transform="translate(595,239)"/>
</svg>
